# xmcd
#
# Track frame offsets: 
#        150
#        15917
#        46335
#        72915
#        89597
#        110525
#        133080
#        136710
#        175377
#        201017
#        222190
#        251737
#
# Disc length: 3609 seconds
#
# Revision: 0
# Processed by: cddbd v1.5.1PL0 Copyright (c) Steve Scherf et al.
# Submitted via: ExactAudioCopy v0.95a4
#
DISCID=a90e170c
DTITLE=Tightrope - Walk on the TIGHTROPE and keep the balance
DYEAR=1900
DGENRE=
TTITLE0=Every time you have time
TTITLE1=Cold feelling
TTITLE2=Rooms
TTITLE3=Prison of love
TTITLE4=Song for Mr. Hockensmith
TTITLE5=Nothing works
TTITLE6=Elvis has just left the building
TTITLE7=Hot juicefor John Mc Gee
TTITLE8=Back to the world
TTITLE9=Everything Blues
TTITLE10=A wild walk
TTITLE11=Shot in the dark
EXTD=
EXTT0=
EXTT1=
EXTT2=
EXTT3=
EXTT4=
EXTT5=
EXTT6=
EXTT7=
EXTT8=
EXTT9=
EXTT10=
EXTT11=
PLAYORDER=
